<svg width="40" height="40" viewBox="0 0 40 40" fill="none" xmlns="http://www.w3.org/2000/svg">
<path d="M3 22C3 30.9742 10.2758 38.25 19.25 38.25C28.2242 38.25 35.5 30.9742 35.5 22C35.5 13.0258 28.2242 5.75 19.25 5.75C10.2758 5.75 3 13.0258 3 22ZM10.5 27.2086C10.9258 22.4078 13.1672 18.0609 20.0992 18.0609V15.1453C20.1004 15.0192 20.1383 14.8961 20.2083 14.7911C20.2782 14.6861 20.3772 14.6037 20.4931 14.554C20.6091 14.5044 20.737 14.4895 20.8613 14.5112C20.9855 14.533 21.1008 14.5904 21.193 14.6766L27.7984 20.9062C27.862 20.9661 27.9127 21.0384 27.9474 21.1186C27.982 21.1988 27.9999 21.2853 27.9999 21.3727C27.9999 21.46 27.982 21.5465 27.9474 21.6267C27.9127 21.7069 27.862 21.7792 27.7984 21.8391L21.2031 28.0711C21.1109 28.1572 20.9957 28.2147 20.8714 28.2364C20.7472 28.2582 20.6193 28.2433 20.5033 28.1936C20.3873 28.1439 20.2884 28.0615 20.2184 27.9566C20.1485 27.8516 20.1106 27.7285 20.1094 27.6023V24.6891C15.6508 24.6891 13.507 25.7414 11.6266 27.7109C11.1977 28.1523 10.4492 27.8141 10.5 27.2086Z" fill="#FF691F"/>
</svg>
